<?xml version="1.0" encoding="utf-8"?>
<!-- Generator: Adobe Illustrator 27.0.0, SVG Export Plug-In . SVG Version: 6.00 Build 0)  -->
<svg version="1.1" id="Calque_1" xmlns="http://www.w3.org/2000/svg" xmlns:xlink="http://www.w3.org/1999/xlink" x="0px" y="0px"
	 viewBox="0 0 512 512" style="enable-background:new 0 0 512 512;" xml:space="preserve">
<style type="text/css">
	.st0{fill:#95A938;}
	.st1{fill:#777070;}
	.st2{fill:#B97B3E;}
	.st3{fill:#E0985C;}
	.st4{fill:#B8CC44;}
</style>
<path class="st0" d="M288,138.8c-22.2-30.3-38-67.3-39.4-110.8c-0.4-11.3-7.5-21.5-18.4-24.4c-7.6-2-15.8-0.2-21,5.8
	c-12.6,14.6-30.8,41.8-46,81c-0.8,1.9-1.6,3.9-2.4,6.1c-7.8,22.7-12.6,50.8-14.2,73.8l194.1,91.6v-72.1
	C340.7,189.8,303.6,163.9,288,138.8z"/>
<path d="M160.8,96.6C160.8,96.6,160.8,96.6,160.8,96.6C160.8,96.5,160.8,96.5,160.8,96.6L160.8,96.6z"/>
<path class="st1" d="M100.7,50.8C97.4,40,87.9,32,76.6,32c-7.9,0-15.3,3.9-18.8,11C46.8,65.9,32,112.1,32,176
	c0,116.9,80.1,180.5,118.4,202.8L11.8,416.6c-5.1,1.4-9.2,5.2-10.9,10.2c-1.7,5-0.8,10.6,2.3,14.8C21.7,466.2,77.3,512,160,512
	c3.6,0,7.2-1.2,10-3.5l75.6-60.5C290,413,322,367,320,208C259.2,202.9,135,164.2,100.7,50.8z"/>
<path class="st1" d="M512,76.3c0-6.8-5.5-12.3-12.3-12.3H400c-44.2,0-80,35.8-80,80v30.6v1.3V208c64,0,109-5,160-80l29.9-44.9
	C511.2,81.1,512,78.7,512,76.3z M384,136c-8.8,0-16-7.2-16-16s7.2-16,16-16s16,7.2,16,16S392.8,136,384,136z"/>
<path class="st2" d="M320,208c2,159-30,205-74.4,240H320c88.4,0,160-71.6,160-160V128C429,203,384,208,320,208z"/>
<path class="st3" d="M320,208c0.6,45.9-1.7,82.5-6.3,112C461.1,153,480,272.6,480,227s0-99,0-99C429,203,384,208,320,208z"/>
<path class="st4" d="M210.3,138.7c19.2,13.3,72.5,30.1,109.6,34.8c-11.2-9.6-24.2-22.2-31.9-34.7c-22.2-30.3-38-67.3-39.4-110.8
	c-0.4-11.3-7.5-21.5-18.4-24.4c-7.6-2-15.8-0.2-21,5.8c-12.6,14.6-30.8,41.8-46,81c-0.8,1.9-1.6,3.9-2.4,6.1c0,0,0,0,0,0
	C174.8,113.5,192.5,126.4,210.3,138.7z"/>
</svg>
